<svg class="logo-media2" width="132" height="27" viewBox="0 0 132 27" fill="none" xmlns="http://www.w3.org/2000/svg">
    <g class="svg-hover2 ">
        <path
            d="M13.957 19H16.6289V0.760742H0.857422V19H3.51074V3.26562H13.957V19ZM25.3682 9.88965C25.3682 8.01562 26.0176 6.38281 27.3535 4.97266C28.6895 3.5625 30.1738 2.85742 31.8252 2.85742C33.3838 2.85742 34.7939 3.54395 36.0371 4.91699C37.2803 6.29004 37.9111 7.94141 37.9111 9.88965C37.9111 11.8379 37.2803 13.4893 36.0371 14.8623C34.7939 16.2354 33.3838 16.9033 31.8252 16.9033C30.1738 16.9033 28.6895 16.2168 27.3535 14.8066C26.0176 13.3965 25.3682 11.7637 25.3682 9.88965ZM25.3682 16.1426L25.6279 16.4951C25.8135 16.7178 26.0732 16.9961 26.4443 17.3115C26.8154 17.627 27.2422 17.9424 27.7432 18.2393C28.2256 18.5547 28.8379 18.8145 29.5615 19.0371C30.2852 19.2598 31.0459 19.3711 31.8252 19.3711C34.1631 19.3711 36.2041 18.4434 37.9482 16.5879C39.6924 14.7324 40.5645 12.4873 40.5645 9.88965C40.5645 7.29199 39.6738 5.04688 37.9297 3.19141C36.1855 1.31738 34.1445 0.389648 31.8252 0.389648C31.0459 0.389648 30.2852 0.500977 29.543 0.723633C28.8008 0.946289 28.207 1.20605 27.7432 1.50293C27.2607 1.7998 26.834 2.13379 26.4258 2.50488C26.0176 2.87598 25.7578 3.13574 25.6279 3.28418C25.498 3.43262 25.4053 3.5625 25.3682 3.63672V0.779297H22.7148V26.9971H25.3682V16.1426ZM59.9355 9.88965C59.9355 11.8564 59.2676 13.5264 57.9688 14.8809C56.6699 16.2354 55.0928 16.9033 53.2744 16.9033C51.4561 16.9033 49.8789 16.2354 48.5801 14.8623C47.2812 13.4893 46.6318 11.8379 46.6318 9.87109C46.6318 7.9043 47.2812 6.25293 48.5801 4.89844C49.8789 3.54395 51.4561 2.85742 53.2744 2.85742C55.0928 2.85742 56.6699 3.54395 57.9688 4.89844C59.2676 6.25293 59.9355 7.92285 59.9355 9.88965ZM43.9785 9.88965C43.9785 12.5615 44.8691 14.8066 46.6875 16.6436C48.5059 18.4619 50.6953 19.3896 53.293 19.3896C55.8721 19.3896 58.0615 18.4619 59.8613 16.6436C61.6797 14.8066 62.5703 12.5615 62.5703 9.88965C62.5703 7.21777 61.6797 4.97266 59.8613 3.13574C58.0615 1.29883 55.8721 0.371094 53.293 0.371094C50.6953 0.371094 48.5059 1.29883 46.6875 3.13574C44.8691 4.97266 43.9785 7.21777 43.9785 9.88965ZM87.6934 19H90.3652V0.760742H87.6934V8.55371H77.2471V0.760742H74.5938V19H77.2471V11.0215H87.6934V19ZM100.44 8.55371C98.7148 8.85059 97.3975 9.46289 96.4883 10.3906C95.5605 11.3184 95.1152 12.543 95.1152 14.0645C95.1152 15.4561 95.7275 16.6807 96.9707 17.7568C98.2139 18.833 99.7539 19.3711 101.572 19.3711C102.296 19.3711 103.001 19.2783 103.688 19.0742C104.374 18.8887 104.931 18.666 105.357 18.4062C105.766 18.1465 106.155 17.8682 106.526 17.5342C106.897 17.2002 107.12 16.9775 107.231 16.8477C107.343 16.7178 107.417 16.6064 107.473 16.5322V19H110.126V7.40332C110.126 5.41797 109.439 3.74805 108.066 2.39355C106.693 1.05762 104.986 0.371094 102.908 0.371094C102.092 0.371094 101.275 0.500977 100.496 0.742188C99.7168 0.983398 99.0859 1.26172 98.6035 1.55859C98.1211 1.87402 97.6572 2.22656 97.2119 2.61621C96.7666 3.00586 96.4883 3.28418 96.3584 3.43262C96.2285 3.58105 96.1357 3.71094 96.0615 3.80371L97.7686 5.51074L98.3438 4.86133C98.7148 4.41602 99.3271 3.9707 100.181 3.52539C101.034 3.08008 101.943 2.85742 102.908 2.85742C104.244 2.85742 105.339 3.28418 106.192 4.11914C107.046 4.97266 107.473 6.06738 107.473 7.40332L100.44 8.55371ZM101.572 16.9033C100.385 16.9033 99.4385 16.6436 98.7705 16.1055C98.1025 15.5674 97.7686 14.8809 97.7686 14.0645C97.7686 12.3574 98.9189 11.2812 101.201 10.8359L107.473 9.68555V10.8359C107.473 12.6357 106.916 14.1016 105.803 15.2148C104.689 16.3467 103.279 16.9033 101.572 16.9033ZM114.857 9.87109C114.857 12.5059 115.748 14.751 117.548 16.6064C119.329 18.4619 121.481 19.3711 123.968 19.3711C124.858 19.3711 125.73 19.2412 126.584 18.9629C127.438 18.6846 128.143 18.3877 128.681 18.0537C129.237 17.7197 129.757 17.3486 130.239 16.9219C130.74 16.4951 131.074 16.1982 131.223 16.0127C131.371 15.8271 131.482 15.6973 131.557 15.5859L129.664 13.8789L129.052 14.6211C128.625 15.1406 127.938 15.6416 126.992 16.1426C126.027 16.6621 125.025 16.9033 123.968 16.9033C122.224 16.9033 120.702 16.2354 119.422 14.8809C118.142 13.5264 117.511 11.8564 117.511 9.88965C117.511 7.92285 118.142 6.25293 119.422 4.89844C120.702 3.54395 122.224 2.85742 123.968 2.85742C124.654 2.85742 125.322 2.96875 125.953 3.17285C126.584 3.39551 127.085 3.63672 127.493 3.89648C127.883 4.15625 128.254 4.47168 128.588 4.82422C128.922 5.19531 129.145 5.43652 129.237 5.56641C129.349 5.71484 129.423 5.80762 129.46 5.88184L131.371 3.98926L130.573 3.11719C130.054 2.52344 129.163 1.91113 127.938 1.29883C126.714 0.686523 125.378 0.371094 123.949 0.371094C121.481 0.371094 119.348 1.29883 117.548 3.1543C115.748 5.00977 114.857 7.23633 114.857 9.87109Z" />
    </g>
</svg>