<svg class="logo-media2" width="153" height="20" viewBox="0 0 153 20" fill="none" xmlns="http://www.w3.org/2000/svg">
    <path
        d="M3.51074 13.8789L7.12891 10.0752L13.5859 19H16.6289L8.83594 8.16406L15.8682 0.760742H12.6211L3.51074 10.4463V0.760742H0.857422V19H3.51074V13.8789ZM33.8848 9.88965C33.8848 11.8564 33.2168 13.5264 31.918 14.8809C30.6191 16.2354 29.042 16.9033 27.2236 16.9033C25.4053 16.9033 23.8281 16.2354 22.5293 14.8623C21.2305 13.4893 20.5811 11.8379 20.5811 9.87109C20.5811 7.9043 21.2305 6.25293 22.5293 4.89844C23.8281 3.54395 25.4053 2.85742 27.2236 2.85742C29.042 2.85742 30.6191 3.54395 31.918 4.89844C33.2168 6.25293 33.8848 7.92285 33.8848 9.88965ZM17.9277 9.88965C17.9277 12.5615 18.8184 14.8066 20.6367 16.6436C22.4551 18.4619 24.6445 19.3896 27.2422 19.3896C29.8213 19.3896 32.0107 18.4619 33.8105 16.6436C35.6289 14.8066 36.5195 12.5615 36.5195 9.88965C36.5195 7.21777 35.6289 4.97266 33.8105 3.13574C32.0107 1.29883 29.8213 0.371094 27.2422 0.371094C24.6445 0.371094 22.4551 1.29883 20.6367 3.13574C18.8184 4.97266 17.9277 7.21777 17.9277 9.88965ZM54.4062 19H57.0781V0.760742H54.4062V8.55371H43.96V0.760742H41.3066V19H43.96V11.0215H54.4062V19ZM60.8818 3.22852H67.3389V19H69.9922V3.22852H76.4492V0.760742H60.8818V3.22852ZM84.2607 8.55371C82.5352 8.85059 81.2178 9.46289 80.3086 10.3906C79.3809 11.3184 78.9355 12.543 78.9355 14.0645C78.9355 15.4561 79.5479 16.6807 80.791 17.7568C82.0342 18.833 83.5742 19.3711 85.3926 19.3711C86.1162 19.3711 86.8213 19.2783 87.5078 19.0742C88.1943 18.8887 88.751 18.666 89.1777 18.4062C89.5859 18.1465 89.9756 17.8682 90.3467 17.5342C90.7178 17.2002 90.9404 16.9775 91.0518 16.8477C91.1631 16.7178 91.2373 16.6064 91.293 16.5322V19H93.9463V7.40332C93.9463 5.41797 93.2598 3.74805 91.8867 2.39355C90.5137 1.05762 88.8066 0.371094 86.7285 0.371094C85.9121 0.371094 85.0957 0.500977 84.3164 0.742188C83.5371 0.983398 82.9062 1.26172 82.4238 1.55859C81.9414 1.87402 81.4775 2.22656 81.0322 2.61621C80.5869 3.00586 80.3086 3.28418 80.1787 3.43262C80.0488 3.58105 79.9561 3.71094 79.8818 3.80371L81.5889 5.51074L82.1641 4.86133C82.5352 4.41602 83.1475 3.9707 84.001 3.52539C84.8545 3.08008 85.7637 2.85742 86.7285 2.85742C88.0645 2.85742 89.1592 3.28418 90.0127 4.11914C90.8662 4.97266 91.293 6.06738 91.293 7.40332L84.2607 8.55371ZM85.3926 16.9033C84.2051 16.9033 83.2588 16.6436 82.5908 16.1055C81.9229 15.5674 81.5889 14.8809 81.5889 14.0645C81.5889 12.3574 82.7393 11.2812 85.0215 10.8359L91.293 9.68555V10.8359C91.293 12.6357 90.7363 14.1016 89.623 15.2148C88.5098 16.3467 87.0996 16.9033 85.3926 16.9033ZM102.667 13.8789L106.285 10.0752L112.742 19H115.785L107.992 8.16406L115.024 0.760742H111.777L102.667 10.4463V0.760742H100.014V19H102.667V13.8789ZM116.917 3.22852H123.374V19H126.027V3.22852H132.484V0.760742H116.917V3.22852ZM149.981 0.760742L138.96 14.4355V0.760742H136.307V19H138.57L149.592 5.3252V19H152.264V0.760742H149.981Z"
        fill="#323264" />
</svg>