<svg class="logo-media2" width="143" height="24" viewBox="0 0 143 24" fill="none" xmlns="http://www.w3.org/2000/svg">
    <path
        d="M3.51074 13.8789L7.12891 10.0752L13.5859 19H16.6289L8.83594 8.16406L15.8682 0.760742H12.6211L3.51074 10.4463V0.760742H0.857422V19H3.51074V13.8789ZM33.8848 9.88965C33.8848 11.8564 33.2168 13.5264 31.918 14.8809C30.6191 16.2354 29.042 16.9033 27.2236 16.9033C25.4053 16.9033 23.8281 16.2354 22.5293 14.8623C21.2305 13.4893 20.5811 11.8379 20.5811 9.87109C20.5811 7.9043 21.2305 6.25293 22.5293 4.89844C23.8281 3.54395 25.4053 2.85742 27.2236 2.85742C29.042 2.85742 30.6191 3.54395 31.918 4.89844C33.2168 6.25293 33.8848 7.92285 33.8848 9.88965ZM17.9277 9.88965C17.9277 12.5615 18.8184 14.8066 20.6367 16.6436C22.4551 18.4619 24.6445 19.3896 27.2422 19.3896C29.8213 19.3896 32.0107 18.4619 33.8105 16.6436C35.6289 14.8066 36.5195 12.5615 36.5195 9.88965C36.5195 7.21777 35.6289 4.97266 33.8105 3.13574C32.0107 1.29883 29.8213 0.371094 27.2422 0.371094C24.6445 0.371094 22.4551 1.29883 20.6367 3.13574C18.8184 4.97266 17.9277 7.21777 17.9277 9.88965ZM57.2637 5.51074V19H59.917V0.760742H57.8203L50.6025 9.87109L43.3848 0.760742H41.3066V19H43.96V5.51074L50.6025 13.8789L57.2637 5.51074ZM70.0107 8.55371C68.2852 8.85059 66.9678 9.46289 66.0586 10.3906C65.1309 11.3184 64.6855 12.543 64.6855 14.0645C64.6855 15.4561 65.2979 16.6807 66.541 17.7568C67.7842 18.833 69.3242 19.3711 71.1426 19.3711C71.8662 19.3711 72.5713 19.2783 73.2578 19.0742C73.9443 18.8887 74.501 18.666 74.9277 18.4062C75.3359 18.1465 75.7256 17.8682 76.0967 17.5342C76.4678 17.2002 76.6904 16.9775 76.8018 16.8477C76.9131 16.7178 76.9873 16.6064 77.043 16.5322V19H79.6963V7.40332C79.6963 5.41797 79.0098 3.74805 77.6367 2.39355C76.2637 1.05762 74.5566 0.371094 72.4785 0.371094C71.6621 0.371094 70.8457 0.500977 70.0664 0.742188C69.2871 0.983398 68.6562 1.26172 68.1738 1.55859C67.6914 1.87402 67.2275 2.22656 66.7822 2.61621C66.3369 3.00586 66.0586 3.28418 65.9287 3.43262C65.7988 3.58105 65.7061 3.71094 65.6318 3.80371L67.3389 5.51074L67.9141 4.86133C68.2852 4.41602 68.8975 3.9707 69.751 3.52539C70.6045 3.08008 71.5137 2.85742 72.4785 2.85742C73.8145 2.85742 74.9092 3.28418 75.7627 4.11914C76.6162 4.97266 77.043 6.06738 77.043 7.40332L70.0107 8.55371ZM71.1426 16.9033C69.9551 16.9033 69.0088 16.6436 68.3408 16.1055C67.6729 15.5674 67.3389 14.8809 67.3389 14.0645C67.3389 12.3574 68.4893 11.2812 70.7715 10.8359L77.043 9.68555V10.8359C77.043 12.6357 76.4863 14.1016 75.373 15.2148C74.2598 16.3467 72.8496 16.9033 71.1426 16.9033ZM98.8633 19H101.535V0.760742H98.8633V8.55371H88.417V0.760742H85.7637V19H88.417V11.0215H98.8633V19ZM124.524 16.5322H121.667V0.760742H109.143V6.08594C109.143 7.42188 109.013 8.7207 108.79 9.94531C108.567 11.1699 108.308 12.1533 108.011 12.8955C107.714 13.6377 107.398 14.3057 107.027 14.9365C106.656 15.5674 106.378 15.9756 106.229 16.1611C106.081 16.3467 105.97 16.458 105.896 16.5322H104.578V23.5645H107.231V19H121.871V23.5645H124.524V16.5322ZM111.796 3.22852H119.014V16.5322H108.753L109.514 15.4746C110.015 14.7695 110.516 13.5449 111.017 11.8008C111.536 10.0752 111.777 8.16406 111.777 6.08594L111.796 3.22852ZM132.688 8.55371C130.963 8.85059 129.646 9.46289 128.736 10.3906C127.809 11.3184 127.363 12.543 127.363 14.0645C127.363 15.4561 127.976 16.6807 129.219 17.7568C130.462 18.833 132.002 19.3711 133.82 19.3711C134.544 19.3711 135.249 19.2783 135.936 19.0742C136.622 18.8887 137.179 18.666 137.605 18.4062C138.014 18.1465 138.403 17.8682 138.774 17.5342C139.146 17.2002 139.368 16.9775 139.479 16.8477C139.591 16.7178 139.665 16.6064 139.721 16.5322V19H142.374V7.40332C142.374 5.41797 141.688 3.74805 140.314 2.39355C138.941 1.05762 137.234 0.371094 135.156 0.371094C134.34 0.371094 133.523 0.500977 132.744 0.742188C131.965 0.983398 131.334 1.26172 130.852 1.55859C130.369 1.87402 129.905 2.22656 129.46 2.61621C129.015 3.00586 128.736 3.28418 128.606 3.43262C128.477 3.58105 128.384 3.71094 128.31 3.80371L130.017 5.51074L130.592 4.86133C130.963 4.41602 131.575 3.9707 132.429 3.52539C133.282 3.08008 134.191 2.85742 135.156 2.85742C136.492 2.85742 137.587 3.28418 138.44 4.11914C139.294 4.97266 139.721 6.06738 139.721 7.40332L132.688 8.55371ZM133.82 16.9033C132.633 16.9033 131.687 16.6436 131.019 16.1055C130.351 15.5674 130.017 14.8809 130.017 14.0645C130.017 12.3574 131.167 11.2812 133.449 10.8359L139.721 9.68555V10.8359C139.721 12.6357 139.164 14.1016 138.051 15.2148C136.938 16.3467 135.527 16.9033 133.82 16.9033Z"
        fill="#323264" />
</svg>